*******************************************************************************
                          Battle of the Damned (1969)
*******************************************************************************

-------------------------------------------------------------------------------
                              General Information
-------------------------------------------------------------------------------
Type.................: Movie



Video Format.........: AVI
Video Bitrate........: 1377
Resolution...........: 352 x 264
Color................: 8 bit
FPS..................: 25.000
Source...............: DVD 4x3
Original Format......: NTSC
Genre................: War
IMDb Rating..........: 4.3
Movie Information....: http://www.imdb.com/title/tt0064865/

-------------------------------------------------------------------------------
                               Post Information
-------------------------------------------------------------------------------
Posted by............: RadioResearch
Posted on............: 3/16/2013

-------------------------------------------------------------------------------
                                 Release Notes
-------------------------------------------------------------------------------
SEEDBOX SUPPORTED!

ORIGINAL TITLE Quella dannata pattuglia

English with (sparse) Greek subtitles.  DVDRip, but DVD is obviously made from a 
video (processed) which was in turn made from an original 35mm print.  
Occasional video glitch usually when a subtitle appears.  V=9 A=10.

Italian made ( dubed into English) WW2 movie.The plot is a simple combination of 
two decent American war films, namely Play Dirty, and also Tobruk. A small band 
of misfit American commandos are assigned to head across the North African 
desert to blow up a huge German fuel depot. Why this fuel depot is important is 
explained in an overly long introduction, comprised of narrated black and white 
stock footage.

That introduction is just a time-killer, but once it's out of the way, the fun 
begins.  Montero pays close attention to getting the details of the time period 
and setting correct, and this adds a great deal to the realistic feel and tone 
of the film. The Germans are properly armed and wear the right kind of uniforms, 
as do the American commandos. The exteriors, shot in Egypt, make the vast Sahara 
desert look appropriately bleak.

This is another of the lost Macaroni Combat films.  Very rare, unless you want 
it solely in Italian (someone put it up a few weeks ago).  This is in English 
and the Greek computer-generated subtitles don;t really get in the way much.  
Had a hard time laying my hands on this as well as a few others I'll be posting.

Enjoy!

RadioResearch

General
Complete name                            : G:Battle of the Damned 
(1969)Movie_Title1.avi
Format                                   : AVI
Format/Info                              : Audio Video Interleave
File size                                : 863 MiB
Duration                                 : 1h 27mn
Overall bit rate                         : 1 377 Kbps
Movie name                               : Movie
Writing application                      : MEncoder 5.0
Writing library                          : [= DigiArty videodll! =]

Video
ID                                       : 0
Format                                   : MPEG-4 Visual
Format profile                           : Simple@L1
Format settings, BVOP                    : No
Format settings, QPel                    : No
Format settings, GMC                     : No warppoints
Format settings, Matrix                  : Default (H.263)
Codec ID                                 : DX50
Codec ID/Hint                            : DivX 5
Duration                                 : 1h 27mn
Bit rate                                 : 1 116 Kbps
Width                                    : 352 pixels
Height                                   : 264 pixels
Display aspect ratio                     : 4:3
Frame rate                               : 25.000 fps
Color space                              : YUV
Chroma subsampling                       : 4:2:0
Bit depth                                : 8 bits
Scan type                                : Progressive
Compression mode                         : Lossy
Bits/(Pixel*Frame)                       : 0.480
Stream size                              : 699 MiB (81%)
Writing library                          : Lavc54.71.100

Audio
ID                                       : 1
Format                                   : AC-3
Format/Info                              : Audio Coding 3
Mode extension                           : CM (complete main)
Format settings, Endianness              : Big
Codec ID                                 : 2000
Duration                                 : 1h 27mn
Bit rate mode                            : Constant
Bit rate                                 : 256 Kbps
Channel(s)                               : 2 channels
Channel positions                        : Front: L R
Sampling rate                            : 48.0 KHz
Bit depth                                : 16 bits
Compression mode                         : Lossy
Delay relative to video                  : 31ms
Stream size                              : 160 MiB (19%)
Alignment                                : Split accross interleaves
Interleave, duration                     : 500 ms (12.50 video frames)
Interleave, preload duration             : 500 ms




-------------------------------------------------------------------------------
Generated with Cool NFO Creator - http://fly.to/coolbeans
-------------------------------------------------------------------------------
